<svg version="1.2" xmlns="http://www.w3.org/2000/svg" viewBox="0 0 1000 1412" width="1000" height="1412">
	<title>Figma-logo-svg</title>
	<style>
		.s0 { fill: none;stroke: #ffffff;stroke-linecap: round;stroke-width: 82.3 } 
	</style>
	<path id="path0_fill" class="s0" d="m304.5 1325.6c113.6 0 205.8-92.3 205.8-205.9v-205.8h-205.8c-113.6 0-205.7 92.2-205.7 205.8 0 113.6 92.1 205.9 205.7 205.9z"/>
	<path id="path1_fill" class="s0" d="m98.8 708.1c0-113.7 92.1-205.9 205.7-205.9h205.8v411.7h-205.8c-113.6 0-205.7-92.2-205.7-205.8z"/>
	<path id="path1_fill_1_" class="s0" d="m98.8 296.4c0-113.6 92.1-205.8 205.7-205.8h205.8v411.6h-205.8c-113.6 0-205.7-92.2-205.7-205.8z"/>
	<path id="path2_fill" class="s0" d="m510.3 90.6h205.7c113.6 0 205.8 92.2 205.8 205.8 0 113.6-92.2 205.8-205.8 205.8h-205.7z"/>
	<path id="path3_fill" class="s0" d="m716 913.9c-113.7 0-205.7-92-205.7-205.8 0-113.9 92-205.9 205.7-205.9 113.8 0 205.8 92 205.8 205.9 0 113.8-92 205.8-205.8 205.8z"/>
</svg>